<svg xmlns="http://www.w3.org/2000/svg" width="84.074" height="73.578" viewBox="0 0 84.074 73.578">
    <g data-name="Group 1316" fill="#613175">
        <path data-name="Path 4348" d="M23.42 36.197v8.978h37.226V34.932h-24.46l-5.321-13.985-8.212 3.125 4.163 10.938z"/>
        <path data-name="Path 4349" d="M19.486 73.578a3.522 3.522 0 0 1-3.519-3.518V57.92H3.514a3.519 3.519 0 0 1-3.516-3.515V3.515A3.52 3.52 0 0 1 3.514 0h77.044a3.519 3.519 0 0 1 3.515 3.515v50.89a3.519 3.519 0 0 1-3.515 3.515H41.719L21.578 72.881a3.5 3.5 0 0 1-2.092.697zM3.514 3.199a.317.317 0 0 0-.317.316v50.89a.317.317 0 0 0 .317.316h15.652v15.338a.317.317 0 0 0 .506.254l20.989-15.592h39.9a.317.317 0 0 0 .317-.316V3.515a.317.317 0 0 0-.317-.316z"/>
    </g>
</svg>
