<svg data-name="Group 223" xmlns="http://www.w3.org/2000/svg" width="75.262" height="84.099" viewBox="0 0 75.262 84.099">
    <g data-name="Path 4342" fill="none">
        <path d="M37.631 84.099a37.632 37.632 0 0 1 0-75.263v3.173a34.451 34.451 0 1 0 19.734 6.208l1.82-2.6a37.634 37.634 0 0 1-21.554 68.482z"/>
        <path d="M37.631 84.099c-20.75 0-37.63-16.882-37.63-37.632C0 25.717 16.88 8.836 37.63 8.836v3.173c-19 0-34.458 15.458-34.458 34.458 0 19.001 15.458 34.459 34.458 34.459s34.458-15.458 34.458-34.459a34.517 34.517 0 0 0-14.724-28.25l1.82-2.6a37.693 37.693 0 0 1 16.077 30.85c0 20.75-16.881 37.632-37.631 37.632z" fill="#5f3173"/>
    </g>
    <g data-name="Path 4343" fill="none">
        <path d="M26.822 25.652l-2.478-1.982L34.559 10.9 20.885 2.722l1.629-2.723 16.794 10.044z"/>
        <path d="M26.822 25.652l-2.478-1.982L34.56 10.9 20.886 2.724 22.514 0 39.31 10.044 26.822 25.652z" fill="#5f3173"/>
    </g>
    <path data-name="Path 4344" d="M20.804 48.394v8.9h36.922v-10.16H33.465l-5.277-13.871-8.145 3.1 4.129 10.85z" fill="#613175"/>
</svg>
