<svg xmlns="http://www.w3.org/2000/svg" width="35.432" height="162" viewBox="0 0 35.432 162">
    <g data-name="Group 49">
        <g data-name="Group 1" fill="#613175">
            <path data-name="Path 1" d="M12.758 76.706l-2.232.779v5.9h24.465v-6.732H18.917l-3.5-9.19-5.4 2.054z"/>
            <path data-name="Path 2" d="M14.093.659c-3.866 1.684-4.958 6.817-4.8 10.668l.019.313c.3 5.28 2.72 9.471 8.442 10.357v-6.3c-2.475-.4-3.665-1.855-3.831-4.364v-.065a5.125 5.125 0 0 1 1.074-3.838 3.329 3.329 0 0 1 2.6-.935h1.69c.267 1.608.5 3.223.73 4.837.1.635.188 1.271.284 1.9.394 2.584.754 5.347 2.364 7.495a5.735 5.735 0 0 0 2.119 1.714 6.507 6.507 0 0 0 2.12.586 10.4 10.4 0 0 0 1.089.065 7.338 7.338 0 0 0 3.958-1.06 6.75 6.75 0 0 0 2.543-3 11.31 11.31 0 0 0 .894-4.662 12.611 12.611 0 0 0-.358-3.035 9.46 9.46 0 0 0-2.689-4.7l2.658-.92V0H18.844a12.233 12.233 0 0 0-4.751.659zm13.67 5.832a7.682 7.682 0 0 1 3.1 4.837 6.107 6.107 0 0 1 .111 1.139 4.007 4.007 0 0 1-.872 2.718 3.076 3.076 0 0 1-2.4.98 5.032 5.032 0 0 1-.8-.074c-1.584-.3-2.24-1.642-2.54-3.1-.108-.548-.211-1.1-.3-1.661-.276-1.608-.5-3.249-.772-4.837h4.484z"/>
            <path data-name="Rectangle 2" d="M10.526 135.758h24.466v6.736H10.526z"/>
            <path data-name="Path 3" d="M10.425 95.412a15.157 15.157 0 0 0 0 10.511 11.072 11.072 0 0 0 2.626 3.953c4.758 4.585 14.08 4.6 18.828-.014a11.047 11.047 0 0 0 2.626-3.98 15.13 15.13 0 0 0 0-10.427 11.02 11.02 0 0 0-2.626-3.975c-4.749-4.617-14.07-4.6-18.828-.014a11 11 0 0 0-2.626 3.946zm16.265.055a5.864 5.864 0 0 1 2.716 2.009 5.822 5.822 0 0 1 0 6.381 5.862 5.862 0 0 1-2.716 2.007 12.912 12.912 0 0 1-8.492-.015 5.723 5.723 0 0 1-2.655-2.036 5.76 5.76 0 0 1 0-6.292 5.727 5.727 0 0 1 2.655-2.038 12.922 12.922 0 0 1 8.493-.016z"/>
            <path data-name="Path 4" d="M3.051 125.338a7.893 7.893 0 0 0 2.285 1.315 10.464 10.464 0 0 0 3.715.623h1.507v3.722h5.33v-3.721h19.1v-6.748H15.896v-4.981h-5.337v5.169h-.007l.007.007c-.656 0-1.257 0-1.952-.007-3.324-.015-3.7-2.99-3.444-5.66H.137c-.493 3.692.314 8.12 2.914 10.281z"/>
            <path data-name="Path 5" d="M9.817 35.508a10.32 10.32 0 0 0 3.364 8.3 6.7 6.7 0 0 0-3.24 4.835 10.074 10.074 0 0 0 2.97 8.548l-2.381.831v5.9h24.46v-6.731h-16.7c-1.615-1.254-3.04-2.951-2.982-5.039a3.008 3.008 0 0 1 2.076-2.91 7.788 7.788 0 0 1 2.838-.392h14.772v-6.733H17.659l-.4-.339a5.354 5.354 0 0 1-1.923-3.434 3.332 3.332 0 0 1 1.04-2.855 4.071 4.071 0 0 1 2.8-.913h15.816v-6.83H18.538c-4.759-.002-8.459 2.671-8.721 7.762z"/>
            <path data-name="Path 6" d="M12.758 155.318l-2.232.778v5.9h24.465v-6.731H18.917l-3.5-9.19-5.4 2.054z"/>
        </g>
    </g>
</svg>
