<svg xmlns="http://www.w3.org/2000/svg" width="40.941" height="40.942" viewBox="0 0 40.941 40.942">
    <g data-name="Group 1225">
        <g data-name="Group 1190">
            <g data-name="Path 5232" fill="none">
                <path d="M20.471 0A20.471 20.471 0 1 1 0 20.471 20.471 20.471 0 0 1 20.471 0z"/>
                <path d="M20.47 1A19.407 19.407 0 0 0 6.703 6.703 19.407 19.407 0 0 0 1 20.47a19.407 19.407 0 0 0 5.703 13.768 19.407 19.407 0 0 0 13.768 5.703 19.407 19.407 0 0 0 13.768-5.703 19.407 19.407 0 0 0 5.703-13.768 19.407 19.407 0 0 0-5.703-13.768A19.407 19.407 0 0 0 20.47 1m0-1c11.306 0 20.47 9.165 20.47 20.47 0 11.307-9.164 20.472-20.47 20.472S0 31.777 0 20.47C0 9.165 9.165 0 20.47 0z" fill="#613175"/>
            </g>
            <text data-name="1DAY" transform="translate(5.59 23.982)" fill="#613175" font-size="11" font-family="HelveticaNeueCyr-Roman, HelveticaNeueCyr">
                <tspan x="0" y="0">1DAY</tspan>
            </text>
        </g>
    </g>
</svg>
