<svg width="36" height="36" viewBox="0 0 36 36" fill="none" xmlns="http://www.w3.org/2000/svg"><path d="M17.89 35.46c9.549 0 17.29-7.741 17.29-17.29S27.439.88 17.89.88.6 8.621.6 18.17s7.741 17.29 17.29 17.29z" fill="#613175"/><path d="M15.93 23.08c-1.84 0-3.56-.72-4.86-2.01-1.3-1.3-2.01-3.02-2.01-4.86 0-1.84.71-3.56 2.01-4.86 1.3-1.3 3.02-2.01 4.86-2.01 1.84 0 3.56.72 4.86 2.01 1.3 1.3 2.01 3.02 2.01 4.86 0 1.84-.71 3.56-2.01 4.86-1.3 1.29-3.03 2.01-4.86 2.01zm0-12.75c-1.57 0-3.04.61-4.15 1.72-1.11 1.11-1.72 2.58-1.72 4.15 0 1.57.61 3.04 1.72 4.15 1.11 1.11 2.58 1.72 4.15 1.72 1.57 0 3.04-.61 4.15-1.72 1.11-1.11 1.72-2.58 1.72-4.15 0-1.57-.61-3.04-1.72-4.15-1.11-1.11-2.58-1.72-4.15-1.72z" fill="#fff"/><path d="M20.7874 20.3563l-.7071.7071 5.9467 5.9467.7071-.7071-5.9467-5.9467z" fill="#fff"/></svg>