<svg xmlns="http://www.w3.org/2000/svg" width="16.531" height="15.821" viewBox="0 0 16.531 15.821">
	<path id="Path_10" data-name="Path 10" d="M9.19.57l1.76,3.56a1.039,1.039,0,0,0,.77.56l3.93.57a1.033,1.033,0,0,1,.57,1.76L13.38,9.8a1.065,1.065,0,0,0-.3.91l.67,3.91a1.026,1.026,0,0,1-1.49,1.08L8.74,13.85a1.02,1.02,0,0,0-.96,0L4.26,15.7a1.022,1.022,0,0,1-1.49-1.08l.67-3.91a1.009,1.009,0,0,0-.3-.91L.31,7.03A1.034,1.034,0,0,1,.88,5.27L4.81,4.7a1.021,1.021,0,0,0,.77-.56L7.34.58A1.033,1.033,0,0,1,9.19.57Z" transform="translate(0.001 -0.001)" fill="#643278"/>
</svg>